<svg width="25" height="25" viewBox="0 0 25 25" fill="none" xmlns="http://www.w3.org/2000/svg">
<path d="M20.7037 0.195312H4.29699C2.0317 0.195312 0.195312 2.0317 0.195312 4.29699V20.7037C0.195312 22.969 2.0317 24.8054 4.29699 24.8054H20.7037C22.969 24.8054 24.8054 22.969 24.8054 20.7037V4.29699C24.8054 2.0317 22.969 0.195312 20.7037 0.195312Z" fill="#D7D7D7"/>
<path d="M11.7733 17.2152C10.7055 17.2152 10.0263 16.5675 10.0263 15.7459C10.0263 12.2301 19.2719 11.5262 19.2719 7.79246C19.2719 5.5147 16.6334 4.53296 13.2653 4.53296C11.2165 4.53296 8.89998 4.91216 6.74855 5.59068V10.0449C9.91905 7.73565 13.4417 6.74715 15.7107 6.74715C17.1375 6.74715 18.1056 7.14522 18.1056 7.8585C18.1056 10.7971 5.35449 10.3315 5.35449 16.6814C5.35449 19.1154 7.02808 20.5098 9.38265 20.5098C12.9441 20.5098 15.638 17.0487 17.6534 12.8297L18.0617 12.9764C17.0003 15.5546 14.8038 18.3816 14.376 20.1988H18.9612V10.7972H17.9022C16.3651 14.1375 14.1126 17.2154 11.7736 17.2154" fill="#494949"/>
</svg>


