<svg width="33" height="36" viewBox="0 0 33 36" fill="none" xmlns="http://www.w3.org/2000/svg">
<path fill-rule="evenodd" clip-rule="evenodd" d="M32.0833 26.5173C32.0811 26.6052 32.0725 26.6928 32.0577 26.7795C32.0963 26.9785 32.0905 27.1837 32.0406 27.3802C31.9907 27.5767 31.8979 27.7597 31.769 27.9162C31.64 28.0726 31.478 28.1986 31.2947 28.2852C31.1113 28.3717 30.9111 28.4166 30.7083 28.4167H5.04167C4.74072 28.4167 4.44272 28.4759 4.16468 28.5911C3.88665 28.7063 3.63401 28.8751 3.42121 29.0879C3.20841 29.3007 3.03961 29.5533 2.92444 29.8314C2.80928 30.1094 2.75 30.4074 2.75 30.7083C2.75 31.0093 2.80928 31.3073 2.92444 31.5853C3.03961 31.8634 3.20841 32.116 3.42121 32.3288C3.63401 32.5416 3.88665 32.7104 4.16468 32.8256C4.44272 32.9407 4.74072 33 5.04167 33H30.7083C31.073 33 31.4227 33.1449 31.6806 33.4027C31.9385 33.6606 32.0833 34.0103 32.0833 34.375C32.0833 34.7397 31.9385 35.0894 31.6806 35.3473C31.4227 35.6051 31.073 35.75 30.7083 35.75H5.04167C3.70453 35.75 2.42217 35.2188 1.47667 34.2733C0.531174 33.3278 0 32.0455 0 30.7083V5.04167C0 3.70453 0.531174 2.42217 1.47667 1.47667C2.42217 0.531174 3.70453 0 5.04167 0H29.6083C30.976 0 32.0833 1.10733 32.0833 2.475V26.5173ZM10.5417 7.33333C10.177 7.33333 9.82726 7.4782 9.5694 7.73606C9.31153 7.99392 9.16667 8.34366 9.16667 8.70833C9.16667 9.07301 9.31153 9.42274 9.5694 9.68061C9.82726 9.93847 10.177 10.0833 10.5417 10.0833H21.5417C21.9063 10.0833 22.2561 9.93847 22.5139 9.68061C22.7718 9.42274 22.9167 9.07301 22.9167 8.70833C22.9167 8.34366 22.7718 7.99392 22.5139 7.73606C22.2561 7.4782 21.9063 7.33333 21.5417 7.33333H10.5417Z" fill="#D7D7D7"/>
</svg>
