<svg width="20" height="26" viewBox="0 0 20 26" fill="none" xmlns="http://www.w3.org/2000/svg">
<path d="M6.38974 21.7937C5.26967 20.7612 4.94273 18.5925 5.4089 17.02C6.21694 18.0112 7.33826 18.325 8.49935 18.5025C10.2895 18.775 12.0498 18.6738 13.7143 17.8475C13.9045 17.7525 14.081 17.6263 14.2887 17.5C14.4453 17.9563 14.4863 18.4175 14.4316 18.8875C14.2986 20.0312 13.7355 20.915 12.8367 21.585C12.4774 21.8538 12.0982 22.0925 11.7278 22.345C10.5891 23.1225 10.2808 24.0325 10.7084 25.3575L10.7507 25.5C10.203 25.26 9.73966 24.8603 9.42052 24.3525C9.08691 23.8299 8.90918 23.2222 8.90834 22.6012C8.90461 22.2912 8.90461 21.98 8.86359 21.6762C8.76289 20.9325 8.41606 20.6013 7.7659 20.5813C7.45381 20.5635 7.14597 20.6607 6.9 20.8546C6.65402 21.0486 6.48676 21.326 6.42952 21.635C6.41875 21.6833 6.40507 21.7358 6.3885 21.7925M0 16.7587C0 16.7587 3.31421 15.13 6.63837 15.13L9.14454 7.305C9.23778 6.925 9.51251 6.6675 9.82081 6.6675C10.1316 6.6675 10.4051 6.925 10.4983 7.305L13.0045 15.13C16.9415 15.13 19.6429 16.7587 19.6429 16.7587L14.0015 1.2525C13.8399 0.795 13.5664 0.5 13.1997 0.5H6.4432C6.07523 0.5 5.81417 0.795 5.64137 1.2525C5.62894 1.2825 0 16.7587 0 16.7587Z" fill="#D7D7D7"/>
</svg>
