<svg width="25" height="25" viewBox="0 0 25 25" fill="none" xmlns="http://www.w3.org/2000/svg">
<path fill-rule="evenodd" clip-rule="evenodd" d="M21.875 0C22.7038 0 23.4987 0.32924 24.0847 0.915291C24.6708 1.50134 25 2.2962 25 3.125V21.875C25 22.7038 24.6708 23.4987 24.0847 24.0847C23.4987 24.6708 22.7038 25 21.875 25H3.125C2.2962 25 1.50134 24.6708 0.915291 24.0847C0.32924 23.4987 0 22.7038 0 21.875V0H21.875ZM7.17188 11.7156C6.22604 11.7156 5.46823 11.9802 4.89844 12.5094C4.32865 13.0375 4.04375 13.8104 4.04375 14.8281V19.6812C4.04375 20.7083 4.31823 21.4812 4.86719 22C5.41615 22.5187 6.14844 22.7781 7.06406 22.7781C7.66406 22.7781 8.19323 22.6615 8.65156 22.4281C9.12031 22.1938 9.48646 21.8427 9.75 21.375C10.0156 20.9063 10.1479 20.326 10.1469 19.6344V19.3453H8.24063V19.6203C8.24063 20.088 8.14375 20.4437 7.95 20.6875C7.75625 20.9312 7.48177 21.0536 7.12656 21.0547C6.73906 21.0443 6.44896 20.9068 6.25625 20.6422C6.0625 20.3766 5.96563 19.9849 5.96563 19.4672V15.1344C5.96563 14.5646 6.05208 14.1422 6.225 13.8672C6.40937 13.5922 6.7099 13.4547 7.12656 13.4547C7.46094 13.4547 7.73021 13.5719 7.93438 13.8063C8.1375 14.0396 8.23906 14.4005 8.23906 14.8891V15.2094H10.1609V14.875C10.1609 14.1729 10.0344 13.5875 9.78125 13.1187C9.55336 12.6687 9.19065 12.3011 8.74375 12.0672C8.30625 11.8328 7.78229 11.7156 7.17188 11.7156ZM13.7562 11.7C13.1458 11.7 12.6219 11.8271 12.1844 12.0812C11.761 12.3317 11.417 12.6968 11.1922 13.1344C10.9487 13.6163 10.828 14.1509 10.8406 14.6906C10.8406 15.475 10.9932 16.0906 11.2984 16.5375C11.6151 16.975 12.1187 17.3562 12.8094 17.6812L13.5422 18.0172C14.0005 18.2109 14.326 18.4349 14.5187 18.6891C14.7125 18.9432 14.8094 19.274 14.8094 19.6812C14.8094 20.1792 14.7229 20.5453 14.55 20.7797C14.3865 21.013 14.1115 21.1297 13.725 21.1297C13.35 21.1297 13.0651 21.0026 12.8703 20.7484C12.6776 20.4953 12.5708 20.1036 12.55 19.5734H10.7344C10.7552 20.6109 11.0146 21.4047 11.5125 21.9547C12.0115 22.5036 12.7339 22.7781 13.6797 22.7781C14.6255 22.7781 15.363 22.5083 15.8922 21.9688C16.4214 21.4292 16.6859 20.6563 16.6859 19.65C16.6859 18.8063 16.513 18.1349 16.1672 17.6359C15.8203 17.137 15.276 16.7255 14.5344 16.4016L13.8313 16.0953C13.425 15.9224 13.1354 15.724 12.9625 15.5C12.7906 15.2771 12.7042 14.9771 12.7031 14.6C12.7031 14.1833 12.7896 13.8729 12.9625 13.6688C13.1448 13.4656 13.4094 13.3641 13.7562 13.3641C14.1312 13.3641 14.3958 13.4859 14.55 13.7297C14.7125 13.9734 14.8036 14.3396 14.8234 14.8281H16.5781C16.5469 13.8115 16.2875 13.0385 15.8 12.5094C15.3125 11.9698 14.6312 11.7 13.7562 11.7ZM20.0953 11.7C19.4859 11.7 18.962 11.8271 18.5234 12.0812C18.1006 12.332 17.7572 12.697 17.5328 13.1344C17.2894 13.6163 17.1686 14.1509 17.1813 14.6906C17.1813 15.475 17.3339 16.0906 17.6391 16.5375C17.9547 16.975 18.4583 17.3562 19.15 17.6812L19.8828 18.0172C20.3391 18.2109 20.6646 18.4349 20.8594 18.6891C21.0521 18.9432 21.1484 19.274 21.1484 19.6812C21.1484 20.1792 21.062 20.5453 20.8891 20.7797C20.7266 21.013 20.4521 21.1297 20.0656 21.1297C19.6896 21.1307 19.4047 21.0036 19.2109 20.7484C19.0172 20.4953 18.9104 20.1036 18.8906 19.5734H17.075C17.0958 20.6109 17.3552 21.4047 17.8531 21.9547C18.3521 22.5036 19.074 22.7781 20.0188 22.7781C20.9656 22.7781 21.7036 22.5083 22.2328 21.9688C22.7609 21.4302 23.025 20.6573 23.025 19.65C23.025 18.8063 22.8521 18.1349 22.5063 17.6359C22.1604 17.137 21.6161 16.7255 20.8734 16.4016L20.1719 16.0953C19.7656 15.9224 19.476 15.724 19.3031 15.5C19.1302 15.2771 19.0437 14.9771 19.0437 14.6C19.0437 14.1833 19.1297 13.8729 19.3016 13.6688C19.4859 13.4656 19.7505 13.3641 20.0953 13.3641C20.4714 13.3641 20.7359 13.4859 20.8891 13.7297C21.0516 13.9734 21.1432 14.3396 21.1641 14.8281H22.9188C22.8875 13.8115 22.6281 13.0385 22.1406 12.5094C21.651 11.9698 20.9693 11.7 20.0953 11.7Z" fill="#D7D7D7"/>
</svg>
