<svg width="16" height="25" viewBox="0 0 16 25" fill="none" xmlns="http://www.w3.org/2000/svg">
<path fill-rule="evenodd" clip-rule="evenodd" d="M3.47526 9.00897C3.01923 9.00897 2.56767 9.09925 2.14636 9.27466C1.72505 9.45007 1.34224 9.70716 1.01978 10.0313C0.697324 10.3554 0.441537 10.7402 0.267024 11.1636C0.092511 11.5871 0.00269054 12.041 0.00269054 12.4993C0.00269054 12.9577 0.092511 13.4116 0.267024 13.835C0.441537 14.2585 0.697324 14.6433 1.01978 14.9674C1.34224 15.2915 1.72505 15.5486 2.14636 15.724C2.56767 15.8994 3.01923 15.9897 3.47526 15.9897H6.94782V9.00897H3.47526ZM6.94782 6.98205H3.47526C2.5541 6.98205 1.67066 6.61425 1.01931 5.95956C0.367947 5.30486 0.00201807 4.41691 0.00201807 3.49103C0.00201807 2.56515 0.367947 1.67719 1.01931 1.0225C1.67066 0.367804 2.5541 0 3.47526 0H6.94782V6.98205ZM8.96441 0V6.98205H12.437C13.3463 6.96407 14.2124 6.58837 14.8491 5.93563C15.4859 5.28289 15.8426 4.40519 15.8426 3.49103C15.8426 2.57687 15.4859 1.69916 14.8491 1.04643C14.2124 0.393689 13.3463 0.0179827 12.437 0H8.96441ZM12.437 9.00762C11.5255 9.00751 10.6505 9.36762 10.0008 10.0103C9.35112 10.6529 8.97888 11.5265 8.96441 12.4426V12.5547C8.97554 13.2425 9.18863 13.9117 9.5769 14.4782C9.96517 15.0446 10.5113 15.4831 11.1467 15.7386C11.7822 15.9941 12.4785 16.0552 13.1484 15.9142C13.8182 15.7732 14.4317 15.4364 14.9117 14.946C15.3917 14.4557 15.7169 13.8338 15.8464 13.1583C15.9759 12.4828 15.9039 11.784 15.6395 11.1495C15.3751 10.515 14.93 9.97321 14.3602 9.59214C13.7905 9.21107 13.1214 9.00771 12.437 9.00762ZM3.47526 18.0166C2.78813 18.0163 2.11635 18.2209 1.54489 18.6044C0.973431 18.9879 0.527962 19.5331 0.264824 20.1711C0.00168538 20.8091 -0.0673019 21.5113 0.0665878 22.1887C0.200478 22.8661 0.53123 23.4884 1.01701 23.9768C1.50279 24.4653 2.12178 24.798 2.79569 24.9328C3.4696 25.0676 4.16816 24.9986 4.80301 24.7343C5.43786 24.4701 5.98049 24.0226 6.36227 23.4483C6.74405 22.8741 6.94782 22.1989 6.94782 21.5083V18.0166H3.47526Z" fill="#D7D7D7"/>
</svg>
