<svg width="25" height="25" viewBox="0 0 25 25" fill="none" xmlns="http://www.w3.org/2000/svg">
<path d="M10.5127 9.3501C10.9502 10.7751 11.4002 12.2001 11.8502 13.6501H9.2002C9.6502 12.2001 10.0752 10.7751 10.5127 9.3501Z" fill="#D7D7D7"/>
<path d="M18.75 0H6.25C4.5924 0 3.00269 0.65848 1.83058 1.83058C0.65848 3.00269 0 4.5924 0 6.25V18.75C0 20.4076 0.65848 21.9973 1.83058 23.1694C3.00269 24.3415 4.5924 25 6.25 25H18.75C20.4076 25 21.9973 24.3415 23.1694 23.1694C24.3415 21.9973 25 20.4076 25 18.75V6.25C25 4.5924 24.3415 3.00269 23.1694 1.83058C21.9973 0.65848 20.4076 0 18.75 0ZM15.6125 18.475H13.6625C13.5847 18.4858 13.5058 18.4657 13.4427 18.4189C13.3796 18.3722 13.3373 18.3026 13.325 18.225C13.0875 17.525 12.8375 16.825 12.6 16.1125C12.5925 16.0678 12.5761 16.0251 12.5518 15.9869C12.5274 15.9487 12.4957 15.9158 12.4583 15.8901C12.421 15.8645 12.3789 15.8466 12.3345 15.8376C12.2901 15.8285 12.2444 15.8285 12.2 15.8375H8.875C8.82882 15.8266 8.78087 15.8256 8.73426 15.8345C8.68765 15.8434 8.64345 15.862 8.60452 15.8891C8.5656 15.9162 8.53283 15.9513 8.50836 15.9919C8.48389 16.0326 8.46826 16.0779 8.4625 16.125C8.25 16.825 8.0125 17.5 7.8 18.2C7.79406 18.2442 7.77909 18.2866 7.75604 18.3248C7.73299 18.3629 7.70234 18.3959 7.666 18.4217C7.62966 18.4475 7.5884 18.4655 7.54479 18.4747C7.50118 18.4839 7.45615 18.484 7.4125 18.475H5.7C5.4 18.475 5.375 18.475 5.475 18.1625L8.175 10.375C8.425 9.6625 8.675 8.95 8.9 8.2375C8.96181 8.02618 8.99543 7.80762 9 7.5875C9 7.325 9.1 7.2625 9.3375 7.275H11.725C11.9 7.275 11.9875 7.275 12.05 7.5125L15.125 16.175C15.3625 16.85 15.6 17.5125 15.825 18.175C15.925 18.45 15.9125 18.475 15.6125 18.475ZM19.4375 18.2625C19.4375 18.475 19.35 18.5375 19.15 18.5375H17.35C17.1 18.5375 17.0375 18.4375 17.0375 18.2125V10.3625C17.0375 10.1125 17.1125 10.0125 17.375 10.025H19.1375C19.3375 10.025 19.4375 10.025 19.4375 10.3C19.4292 12.95 19.4292 15.6042 19.4375 18.2625ZM18.1875 9.1375C18.0084 9.14887 17.8289 9.12154 17.6613 9.05737C17.4937 8.9932 17.3419 8.89368 17.2162 8.7656C17.0905 8.63751 16.9938 8.48386 16.9328 8.31508C16.8718 8.1463 16.8478 7.96637 16.8625 7.7875C16.8641 7.60971 16.9011 7.43402 16.9714 7.27071C17.0417 7.1074 17.1438 6.95974 17.2719 6.83637C17.3999 6.713 17.5512 6.61639 17.717 6.55219C17.8828 6.488 18.0598 6.45751 18.2375 6.4625C18.4104 6.46195 18.5816 6.49727 18.7401 6.56625C18.8987 6.63523 19.0412 6.73635 19.1587 6.86323C19.2762 6.99011 19.3661 7.13999 19.4227 7.30338C19.4793 7.46678 19.5013 7.64014 19.4875 7.8125C19.4977 7.98285 19.473 8.15349 19.4148 8.31392C19.3566 8.47434 19.2661 8.62114 19.149 8.74528C19.0319 8.86941 18.8906 8.96825 18.7338 9.03571C18.5771 9.10317 18.4082 9.13781 18.2375 9.1375H18.1875Z" fill="#D7D7D7"/>
<path d="M11.8502 13.6501H9.2002C9.6502 12.2001 10.0752 10.7751 10.4502 9.3501C10.9502 10.7751 11.4002 12.2001 11.8502 13.6501Z" fill="#D7D7D7"/>
</svg>
