<svg width="25" height="25" viewBox="0 0 25 25" fill="none" xmlns="http://www.w3.org/2000/svg">
<path d="M20.8465 19.1724C20.8465 19.6409 24.484 19.9086 24.2832 19.0609C23.9931 17.6331 21.2482 17.7446 20.8465 19.1724ZM5.33682 21.6487C6.16251 22.3626 7.41221 21.4926 7.81392 20.4887C7.01055 19.4401 4.04244 20.5556 5.33682 21.6487ZM20.4002 20.154C19.3737 21.091 20.5788 22.0726 21.583 21.4256C21.8508 21.2472 21.5607 20.3771 20.4002 20.154ZM17.5215 16.8077C19.7085 15.2683 27.7422 14.4875 24.0378 10.7842L14.5087 1.0351C13.326 -0.0803833 11.3845 -0.0803833 10.291 1.0351L1.09683 10.4495C-2.38451 13.9298 3.35074 13.6397 5.42613 14.956C6.38575 15.5806 2.34654 16.3838 3.17222 17.2092C3.97559 18.0347 8.0148 18.7932 8.81822 19.5963C9.62159 20.4217 7.18912 21.2918 7.99254 22.1172C8.77354 22.9427 10.6481 22.1619 10.9829 24.0358C11.2283 25.419 14.4195 24.7274 15.8478 23.545C16.7404 22.7865 14.308 22.7865 15.1113 21.961C17.1198 19.9309 18.9051 21.0464 19.6415 19.1724C20.0432 18.1685 16.6065 17.4546 17.5215 16.8077ZM9.60469 16.1774C9.01436 15.9116 8.03135 16.1322 7.53326 15.7665C7.21729 15.5345 7.72437 15.4698 8.58321 15.3578C9.82774 15.1956 11.7487 15.8283 12.0754 15.9965C12.4021 16.1646 12.443 16.2676 12.443 16.2676C12.7635 17.5261 11.0216 16.8152 9.60469 16.1774ZM15.9148 5.16224L15.5577 7.32631L14.0625 6.52308L11.63 8.06239L10.8266 4.82758L9.53228 7.63856L6.29644 7.61625C5.67159 7.61625 5.76085 6.96927 6.40801 6.3223C7.67999 4.91683 10.1571 2.52977 10.9382 1.70433C11.7416 0.878894 13.1475 0.901159 13.9509 1.70433L17.5884 5.40765C17.9231 5.74227 17.9231 6.43387 17.7223 6.63461L15.9148 5.16224Z" fill="#D7D7D7"/>
</svg>
