<svg width="25" height="25" viewBox="0 0 25 25" fill="none" xmlns="http://www.w3.org/2000/svg">
<path d="M0 0V25H25V0H0ZM13.6054 19.4973C13.6054 21.9304 12.1768 23.0411 10.0955 23.0411C8.21518 23.0411 7.12679 22.0705 6.56875 20.8929L8.48304 19.7375C8.85179 20.3902 9.18661 20.9429 9.99554 20.9429C10.7652 20.9429 11.2563 20.6411 11.2563 19.4643V11.4786H13.6054V19.4973ZM19.1625 23.0411C16.9804 23.0411 15.5687 22.0036 14.8821 20.6411L16.7964 19.5366C17.2991 20.3571 17.9571 20.9652 19.1125 20.9652C20.083 20.9652 20.7089 20.4795 20.7089 19.8045C20.7089 19.0009 20.0723 18.7161 18.9955 18.242L18.4098 17.9911C16.7134 17.2714 15.592 16.3616 15.592 14.4473C15.592 12.6839 16.9366 11.3446 19.0295 11.3446C20.525 11.3446 21.5964 11.8634 22.367 13.225L20.5366 14.3973C20.1348 13.6777 19.6991 13.3929 19.0241 13.3929C18.3384 13.3929 17.9027 13.8286 17.9027 14.3973C17.9027 15.1009 18.3384 15.3848 19.3482 15.8259L19.9339 16.0768C21.9321 16.9304 23.0536 17.8071 23.0536 19.7705C23.0536 21.8804 21.3902 23.0402 19.1634 23.0402L19.1625 23.0411Z" fill="#D7D7D7"/>
</svg>
