<svg width="25" height="25" viewBox="0 0 25 25" fill="none" xmlns="http://www.w3.org/2000/svg">
<path d="M10.5623 10.6001C10.5812 10.9796 10.4665 11.3538 10.2381 11.6576C10.0098 11.9613 9.68217 12.1754 9.3123 12.2626C8.65979 12.4553 7.97925 12.5356 7.2998 12.5001C7.1248 12.5001 7.1123 12.3876 7.1123 12.2626V9.07511C7.1123 8.98761 7.1998 8.8376 7.2498 8.8376C7.96485 8.75753 8.68841 8.80408 9.3873 8.97511C9.73903 9.0715 10.0473 9.28516 10.261 9.58069C10.4747 9.87622 10.581 10.2359 10.5623 10.6001Z" fill="#D7D7D7"/>
<path d="M18.75 0H6.25C4.5924 0 3.00269 0.65848 1.83058 1.83058C0.65848 3.00269 0 4.5924 0 6.25V18.75C0 20.4076 0.65848 21.9973 1.83058 23.1694C3.00269 24.3415 4.5924 25 6.25 25H18.75C20.4076 25 21.9973 24.3415 23.1694 23.1694C24.3415 21.9973 25 20.4076 25 18.75V6.25C25 4.5924 24.3415 3.00269 23.1694 1.83058C21.9973 0.65848 20.4076 0 18.75 0ZM11.25 13.75C10.6191 14.1507 9.89616 14.3831 9.15 14.425H7.475C7.125 14.425 7.125 14.425 7.125 14.7625V17.6625C7.125 17.9125 7.05 17.9875 6.8 17.9875H5.15C4.9125 17.9875 4.85 17.9 4.85 17.675V7.1375C4.85 6.8875 4.85 6.8125 5.1625 6.8125H9.075C9.78915 6.83185 10.4864 7.03414 11.1 7.4C11.6299 7.69861 12.0711 8.13248 12.3786 8.65734C12.686 9.18219 12.8487 9.77923 12.85 10.3875C12.9223 11.0413 12.8109 11.7023 12.5282 12.2963C12.2456 12.8903 11.803 13.3937 11.25 13.75ZM18.65 17.875C17.5629 18.2985 16.3728 18.3814 15.2375 18.1125C14.8967 18.0375 14.5633 17.9375 14.2375 17.8125C14.1872 17.7889 14.1431 17.7541 14.1084 17.7108C14.0737 17.6674 14.0495 17.6167 14.0375 17.5625V15.675C14.4375 15.825 14.8125 16 15.2 16.125C15.8494 16.3326 16.537 16.3923 17.2125 16.3C17.3475 16.275 17.4767 16.2333 17.6 16.175C17.6733 16.1429 17.7369 16.0924 17.7848 16.0284C17.8327 15.9643 17.8632 15.8889 17.8733 15.8096C17.8834 15.7303 17.8727 15.6497 17.8423 15.5757C17.8119 15.5017 17.7629 15.4369 17.7 15.3875C17.414 15.1896 17.1082 15.022 16.7875 14.8875C16.275 14.6375 15.75 14.4375 15.2625 14.15C14.8223 13.9359 14.463 13.5855 14.2378 13.1509C14.0126 12.7162 13.9336 12.2206 14.0125 11.7375C14.0761 11.2726 14.2692 10.8349 14.5699 10.4746C14.8705 10.1143 15.2665 9.84584 15.7125 9.7C16.5164 9.42815 17.3742 9.35524 18.2125 9.4875C18.6125 9.4875 19 9.6375 19.4 9.7125C19.6125 9.7125 19.6875 9.8875 19.675 10.1V11.5625C19.675 11.8375 19.6125 11.8625 19.3625 11.7625C18.5818 11.401 17.7188 11.2543 16.8625 11.3375C16.7412 11.3516 16.623 11.3854 16.5125 11.4375C16.4375 11.4669 16.3715 11.5155 16.321 11.5783C16.2706 11.641 16.2374 11.7159 16.2248 11.7955C16.2121 11.8751 16.2205 11.9565 16.249 12.0319C16.2776 12.1072 16.3253 12.1738 16.3875 12.225C16.7492 12.4658 17.1283 12.6742 17.525 12.85C18 13.0875 18.5 13.275 18.9625 13.5375C19.3822 13.7285 19.7298 14.0486 19.9547 14.4511C20.1796 14.8536 20.2699 15.3175 20.2125 15.775C20.173 16.2314 20.0037 16.6669 19.7246 17.0302C19.4455 17.3934 19.0683 17.6692 18.6375 17.825L18.65 17.875Z" fill="#D7D7D7"/>
</svg>
