<svg width="44" height="44" viewBox="0 0 44 44" fill="none" xmlns="http://www.w3.org/2000/svg">
<path d="M25.8637 2.8875C24.728 -0.9625 19.272 -0.9625 18.1362 2.8875L17.8612 3.8225C17.6916 4.39889 17.395 4.92998 16.9933 5.37683C16.5917 5.82369 16.0951 6.17497 15.54 6.40493C14.9849 6.63488 14.3853 6.73767 13.7853 6.70575C13.1853 6.67384 12.6001 6.50804 12.0725 6.2205L11.22 5.753C7.69175 3.8335 3.8335 7.69175 5.75575 11.2172L6.2205 12.0725C7.447 14.3275 6.28375 17.1353 3.8225 17.8612L2.8875 18.1362C-0.9625 19.272 -0.9625 24.728 2.8875 25.8637L3.8225 26.1388C4.39889 26.3084 4.92998 26.605 5.37683 27.0067C5.82369 27.4083 6.17497 27.9049 6.40493 28.46C6.63488 29.0151 6.73767 29.6147 6.70575 30.2147C6.67384 30.8147 6.50804 31.3999 6.2205 31.9275L5.753 32.78C3.8335 36.3083 7.69175 40.1665 11.2172 38.2442L12.0725 37.7795C12.6001 37.492 13.1853 37.3262 13.7853 37.2942C14.3853 37.2623 14.9849 37.3651 15.54 37.5951C16.0951 37.825 16.5917 38.1763 16.9933 38.6232C17.395 39.07 17.6916 39.6011 17.8612 40.1775L18.1362 41.1125C19.272 44.9625 24.728 44.9625 25.8637 41.1125L26.1388 40.1775C26.3084 39.6011 26.605 39.07 27.0067 38.6232C27.4083 38.1763 27.9049 37.825 28.46 37.5951C29.0151 37.3651 29.6147 37.2623 30.2147 37.2942C30.8147 37.3262 31.3999 37.492 31.9275 37.7795L32.78 38.247C36.3083 40.1665 40.1665 36.3083 38.2442 32.7827L37.7795 31.9275C37.492 31.3999 37.3262 30.8147 37.2942 30.2147C37.2623 29.6147 37.3651 29.0151 37.5951 28.46C37.825 27.9049 38.1763 27.4083 38.6232 27.0067C39.07 26.605 39.6011 26.3084 40.1775 26.1388L41.1125 25.8637C44.9625 24.728 44.9625 19.272 41.1125 18.1362L40.1775 17.8612C39.6011 17.6916 39.07 17.395 38.6232 16.9933C38.1763 16.5917 37.825 16.0951 37.5951 15.54C37.3651 14.9849 37.2623 14.3853 37.2942 13.7853C37.3262 13.1853 37.492 12.6001 37.7795 12.0725L38.247 11.22C40.1665 7.69175 36.3083 3.8335 32.7827 5.75575L31.9275 6.2205C31.3999 6.50804 30.8147 6.67384 30.2147 6.70575C29.6147 6.73767 29.0151 6.63488 28.46 6.40493C27.9049 6.17497 27.4083 5.82369 27.0067 5.37683C26.605 4.92998 26.3084 4.39889 26.1388 3.8225L25.8637 2.8875ZM22 30.0575C19.863 30.0575 17.8136 29.2086 16.3025 27.6975C14.7914 26.1864 13.9425 24.137 13.9425 22C13.9425 19.863 14.7914 17.8136 16.3025 16.3025C17.8136 14.7914 19.863 13.9425 22 13.9425C24.1363 13.9425 26.185 14.7911 27.6956 16.3017C29.2061 17.8122 30.0548 19.861 30.0548 21.9972C30.0548 24.1335 29.2061 26.1823 27.6956 27.6928C26.185 29.2034 24.1363 30.052 22 30.052V30.0575Z" fill="#D7D7D7"/>
</svg>
