<svg width="30" height="35" viewBox="0 0 30 35" fill="none" xmlns="http://www.w3.org/2000/svg">
<path d="M1.25 35C0.918479 35 0.600537 34.8683 0.366117 34.6339C0.131696 34.3995 0 34.0815 0 33.75C0 33.4185 0.131696 33.1005 0.366117 32.8661C0.600537 32.6317 0.918479 32.5 1.25 32.5H3.75V30C3.74949 27.8774 4.34946 25.798 5.48062 24.0019C6.61179 22.2059 8.22798 20.7665 10.1425 19.85C10.8675 19.5025 11.25 18.9075 11.25 18.375V16.625C11.25 16.0925 10.865 15.4975 10.1425 15.15C8.22798 14.2335 6.61179 12.7941 5.48062 10.9981C4.34946 9.202 3.74949 7.12258 3.75 5V2.5H1.25C0.918479 2.5 0.600537 2.3683 0.366117 2.13388C0.131696 1.89946 0 1.58152 0 1.25C0 0.918479 0.131696 0.600537 0.366117 0.366116C0.600537 0.131696 0.918479 0 1.25 0H28.75C29.0815 0 29.3995 0.131696 29.6339 0.366116C29.8683 0.600537 30 0.918479 30 1.25C30 1.58152 29.8683 1.89946 29.6339 2.13388C29.3995 2.3683 29.0815 2.5 28.75 2.5H26.25V5C26.2505 7.12258 25.6505 9.202 24.5194 10.9981C23.3882 12.7941 21.772 14.2335 19.8575 15.15C19.1325 15.4975 18.75 16.0925 18.75 16.625V18.375C18.75 18.9075 19.135 19.5025 19.8575 19.85C21.772 20.7665 23.3882 22.2059 24.5194 24.0019C25.6505 25.798 26.2505 27.8774 26.25 30V32.5H28.75C29.0815 32.5 29.3995 32.6317 29.6339 32.8661C29.8683 33.1005 30 33.4185 30 33.75C30 34.0815 29.8683 34.3995 29.6339 34.6339C29.3995 34.8683 29.0815 35 28.75 35H1.25ZM6.25 2.5V5C6.25 6.3425 6.55 7.6125 7.0925 8.75H22.9075C23.4475 7.6125 23.75 6.3425 23.75 5V2.5H6.25ZM13.75 18.375C13.75 20.1275 12.555 21.465 11.2225 22.105C9.73324 22.8178 8.47603 23.9374 7.59613 25.3344C6.71623 26.7315 6.24955 28.349 6.25 30C6.25 30 8.415 26.7525 13.75 26.3V18.375ZM16.25 18.375V26.3C21.585 26.7525 23.75 30 23.75 30C23.7505 28.349 23.2838 26.7315 22.4039 25.3344C21.524 23.9374 20.2668 22.8178 18.7775 22.105C17.445 21.465 16.25 20.1275 16.25 18.375Z" fill="#D7D7D7"/>
</svg>
