<svg width="44" height="44" viewBox="0 0 44 44" fill="none" xmlns="http://www.w3.org/2000/svg">
<mask id="mask0_533_324" style="mask-type:luminance" maskUnits="userSpaceOnUse" x="0" y="0" width="44" height="44">
<path d="M0 0H44V44H0V0Z" fill="white"/>
</mask>
<g mask="url(#mask0_533_324)">
<path d="M44 21.4299C44 18.5149 40.3498 15.752 34.7527 14.0397C36.0452 8.33621 35.4713 3.79687 32.9413 2.34304C32.3281 2.00011 31.6344 1.82732 30.932 1.84254V3.84087C31.3445 3.84087 31.6763 3.92337 31.955 4.07554C33.1742 4.77587 33.704 7.43787 33.2915 10.8644C33.1925 11.7077 33.0312 12.595 32.8332 13.5007C30.9585 13.0506 29.0563 12.7242 27.1388 12.5235C25.9958 10.9479 24.7494 9.44981 23.408 8.03921C26.3322 5.32221 29.0767 3.83354 30.943 3.83354V1.83337C28.4753 1.83337 25.2468 3.59154 21.9817 6.64037C18.7183 3.61171 15.488 1.87004 13.0222 1.87004V3.86837C14.8793 3.86837 17.633 5.34971 20.5572 8.04837C19.3013 9.36837 18.0455 10.8644 16.852 12.5235C14.9305 12.7213 13.0248 13.0508 11.1485 13.5099C10.9432 12.6128 10.7873 11.7462 10.681 10.9102C10.2593 7.48187 10.78 4.81987 11.9918 4.11221C12.2595 3.95087 12.6097 3.87754 13.0222 3.87754V1.87921C12.2705 1.87921 11.5867 2.04054 10.9963 2.37971C8.4755 3.83354 7.91083 8.36187 9.21067 14.0489C3.63183 15.7722 0 18.524 0 21.4299C0 24.3449 3.65017 27.1077 9.24733 28.8182C7.95483 34.5235 8.52867 39.0629 11.0587 40.5149C11.6417 40.8559 12.3237 41.0172 13.0753 41.0172C15.543 41.0172 18.7715 39.259 22.0367 36.2102C25.3 39.2407 28.5285 40.9805 30.9962 40.9805C31.7038 40.9937 32.4025 40.8205 33.022 40.4782C35.5428 39.0262 36.1075 34.4979 34.8077 28.8109C40.3682 27.0985 44 24.3357 44 21.4299ZM32.3217 15.4477C31.9734 16.6465 31.5696 17.8284 31.1117 18.9897C30.3634 17.5311 29.5403 16.112 28.6458 14.7382C29.9218 14.9252 31.1477 15.1617 32.3235 15.4477M28.2168 24.9994C27.5452 26.1717 26.8241 27.3149 26.0553 28.4259C23.3644 28.6626 20.6581 28.6657 17.9667 28.435C16.4232 26.2297 15.0732 23.8951 13.9315 21.4574C15.0706 19.0135 16.4149 16.6706 17.9502 14.454C20.6404 14.2168 23.3461 14.2131 26.037 14.443C26.7826 15.5125 27.5061 16.6492 28.2077 17.853C28.8884 19.0276 29.5106 20.2168 30.074 21.4207C29.5038 22.6383 28.8842 23.8322 28.2168 24.9994ZM31.1117 23.8334C31.5957 25.036 32.01 26.2369 32.3492 27.4029C31.1758 27.6907 29.9365 27.9327 28.655 28.1197C29.5447 26.7327 30.3646 25.3022 31.1117 23.8334ZM22.0183 33.4034C21.1823 32.5405 20.3512 31.5835 19.525 30.5324C20.3317 30.569 21.1567 30.5965 21.9908 30.5965C22.8354 30.5978 23.6665 30.5764 24.4842 30.5324C23.6775 31.5829 22.8433 32.5417 22.0183 33.4034ZM15.345 28.1197C14.1088 27.9409 12.8816 27.7047 11.6673 27.412C11.9992 26.2552 12.4117 25.0617 12.8773 23.87C13.2458 24.585 13.6327 25.3037 14.0543 26.0224C14.476 26.7398 14.9062 27.4389 15.345 28.1197ZM21.9725 9.45637C22.8085 10.3193 23.6396 11.2763 24.4658 12.3274C23.6592 12.2907 22.8342 12.2632 22 12.2632C21.1554 12.262 20.3243 12.2834 19.5067 12.3274C20.3133 11.2769 21.1475 10.318 21.9725 9.45637ZM15.3358 14.74C14.4464 16.1241 13.6265 17.5515 12.8792 19.0172C12.4085 17.8483 11.9955 16.6571 11.6417 15.4477C12.815 15.169 14.0543 14.927 15.3358 14.74ZM7.21967 25.9674C4.04433 24.6144 1.991 22.8379 1.991 21.4299C1.991 20.0219 4.04433 18.2362 7.21967 16.8924C7.98967 16.5605 8.833 16.2635 9.70383 15.9867C10.2153 17.743 10.8882 19.5727 11.7205 21.4482C10.9338 23.2119 10.2692 25.0275 9.73133 26.8822C8.87978 26.6182 8.04156 26.3129 7.21967 25.9674ZM12.045 38.7824C10.8258 38.0857 10.296 35.42 10.7085 31.9954C10.8075 31.152 10.9688 30.2629 11.1668 29.3572C12.9232 29.788 14.8427 30.1199 16.8612 30.3362C18.0042 31.9119 19.2506 33.4099 20.592 34.8205C17.6678 37.5375 14.9233 39.0262 13.057 39.0262C12.7052 39.0276 12.3581 38.9446 12.045 38.7842M33.319 31.9514C33.7407 35.3779 33.22 38.0417 32.0082 38.7494C31.7405 38.9107 31.3903 38.9822 30.9778 38.9822C29.1207 38.9822 26.367 37.5027 23.4428 34.8022C24.7792 33.398 26.0172 31.9034 27.148 30.3289C29.0695 30.1311 30.9752 29.8016 32.8515 29.3425C33.0605 30.247 33.2163 31.1166 33.319 31.9514ZM36.7712 25.9692C36.0012 26.301 35.1578 26.598 34.287 26.8749C33.7387 25.011 33.0649 23.1863 32.2703 21.4134C33.0953 19.5489 33.7572 17.7284 34.2595 15.9794C35.1493 16.2568 35.9896 16.5618 36.7803 16.8942C39.9557 18.2472 42.009 20.0237 42.009 21.4317C41.9998 22.8397 39.9465 24.6254 36.7712 25.9692Z" fill="#D7D7D7"/>
<path d="M21.9908 25.5292C23.078 25.5292 24.1207 25.0973 24.8895 24.3286C25.6583 23.5598 26.0901 22.5171 26.0901 21.4299C26.0901 20.3427 25.6583 19.3 24.8895 18.5312C24.1207 17.7625 23.078 17.3306 21.9908 17.3306C20.9036 17.3306 19.8609 17.7625 19.0921 18.5312C18.3234 19.3 17.8915 20.3427 17.8915 21.4299C17.8915 22.5171 18.3234 23.5598 19.0921 24.3286C19.8609 25.0973 20.9036 25.5292 21.9908 25.5292Z" fill="#D7D7D7"/>
</g>
</svg>
