<svg width="43" height="36" viewBox="0 0 43 36" fill="none" xmlns="http://www.w3.org/2000/svg">
<path d="M15.131 5.97931C15.131 4.3935 15.7678 2.87264 16.9013 1.7513C18.0347 0.629961 19.572 0 21.175 0C22.778 0 24.3153 0.629961 25.4487 1.7513C26.5822 2.87264 27.2189 4.3935 27.2189 5.97931C27.2189 7.56512 26.5822 9.08598 25.4487 10.2073C24.3153 11.3287 22.778 11.9586 21.175 11.9586C19.572 11.9586 18.0347 11.3287 16.9013 10.2073C15.7678 9.08598 15.131 7.56512 15.131 5.97931ZM21.175 2.99265C20.7785 2.99265 20.386 3.0699 20.0197 3.21999C19.6534 3.37009 19.3206 3.59008 19.0403 3.86742C18.7599 4.14476 18.5376 4.474 18.3859 4.83636C18.2341 5.19872 18.156 5.58709 18.156 5.97931C18.156 6.37152 18.2341 6.7599 18.3859 7.12225C18.5376 7.48461 18.7599 7.81386 19.0403 8.0912C19.3206 8.36854 19.6534 8.58853 20.0197 8.73862C20.386 8.88872 20.7785 8.96597 21.175 8.96597C21.9757 8.96597 22.7436 8.65131 23.3097 8.0912C23.8759 7.53109 24.1939 6.77142 24.1939 5.97931C24.1939 5.1872 23.8759 4.42753 23.3097 3.86742C22.7436 3.30731 21.9757 2.99265 21.175 2.99265ZM30.25 7.47563C30.25 6.88613 30.3674 6.3024 30.5954 5.75778C30.8234 5.21315 31.1577 4.71829 31.579 4.30145C32.0003 3.88461 32.5006 3.55396 33.0511 3.32836C33.6016 3.10277 34.1916 2.98666 34.7875 2.98666C35.3834 2.98666 35.9734 3.10277 36.5239 3.32836C37.0744 3.55396 37.5746 3.88461 37.996 4.30145C38.4173 4.71829 38.7516 5.21315 38.9796 5.75778C39.2076 6.3024 39.325 6.88613 39.325 7.47563C39.325 8.66618 38.8469 9.80797 37.996 10.6498C37.1451 11.4917 35.9909 11.9646 34.7875 11.9646C33.5841 11.9646 32.4299 11.4917 31.579 10.6498C30.7281 9.80797 30.25 8.66618 30.25 7.47563ZM34.7875 5.97931C34.3864 5.97931 34.0016 6.13696 33.718 6.41757C33.4343 6.69819 33.275 7.07878 33.275 7.47563C33.275 7.87248 33.4343 8.25308 33.718 8.53369C34.0016 8.81431 34.3864 8.97196 34.7875 8.97196C35.1886 8.97196 35.5733 8.81431 35.857 8.53369C36.1406 8.25308 36.3 7.87248 36.3 7.47563C36.3 7.07878 36.1406 6.69819 35.857 6.41757C35.5733 6.13696 35.1886 5.97931 34.7875 5.97931ZM7.5625 2.98666C6.35908 2.98666 5.20495 3.45961 4.354 4.30145C3.50306 5.1433 3.025 6.28508 3.025 7.47563C3.025 8.66618 3.50306 9.80797 4.354 10.6498C5.20495 11.4917 6.35908 11.9646 7.5625 11.9646C8.76592 11.9646 9.92005 11.4917 10.771 10.6498C11.6219 9.80797 12.1 8.66618 12.1 7.47563C12.1 6.28508 11.6219 5.1433 10.771 4.30145C9.92005 3.45961 8.76592 2.98666 7.5625 2.98666ZM6.05 7.47563C6.05 7.07878 6.20935 6.69819 6.493 6.41757C6.77665 6.13696 7.16136 5.97931 7.5625 5.97931C7.96364 5.97931 8.34835 6.13696 8.632 6.41757C8.91565 6.69819 9.075 7.07878 9.075 7.47563C9.075 7.87248 8.91565 8.25308 8.632 8.53369C8.34835 8.81431 7.96364 8.97196 7.5625 8.97196C7.16136 8.97196 6.77665 8.81431 6.493 8.53369C6.20935 8.25308 6.05 7.87248 6.05 7.47563ZM9.8857 14.9572C9.35465 15.8671 9.07505 16.8992 9.075 17.9499H3.025V25.4315C3.02476 26.1759 3.21163 26.9087 3.5688 27.5638C3.92596 28.219 4.44221 28.776 5.07107 29.1847C5.69994 29.5935 6.42167 29.8411 7.17129 29.9052C7.92092 29.9694 8.67492 29.8482 9.3654 29.5524C9.58925 30.543 9.94015 31.4886 10.3939 32.3715C9.24581 32.8301 8.00145 33.0028 6.77012 32.8744C5.53879 32.7461 4.35814 32.3206 3.33186 31.6354C2.30558 30.9501 1.46507 30.0261 0.884125 28.9444C0.303184 27.8627 -0.000411545 26.6564 4.187e-07 25.4315V17.9499C4.187e-07 17.1562 0.318705 16.395 0.886002 15.8338C1.4533 15.2725 2.22272 14.9572 3.025 14.9572H9.8857ZM31.9561 32.3715C33.1042 32.8301 34.3485 33.0028 35.5799 32.8744C36.8112 32.7461 37.9919 32.3206 39.0181 31.6354C40.0444 30.9501 40.8849 30.0261 41.4659 28.9444C42.0468 27.8627 42.3504 26.6564 42.35 25.4315V17.9499C42.35 17.1562 42.0313 16.395 41.464 15.8338C40.8967 15.2725 40.1273 14.9572 39.325 14.9572H32.4643C32.9785 15.8371 33.275 16.8576 33.275 17.9499H39.325V25.4315C39.3252 26.1759 39.1384 26.9087 38.7812 27.5638C38.424 28.219 37.9078 28.776 37.2789 29.1847C36.6501 29.5935 35.9283 29.8411 35.1787 29.9052C34.4291 29.9694 33.6751 29.8482 32.9846 29.5524C32.7547 30.5459 32.4119 31.4856 31.9561 32.3715ZM15.125 14.9543C14.3227 14.9543 13.5533 15.2696 12.986 15.8308C12.4187 16.392 12.1 17.1532 12.1 17.9469V26.9278C12.1 29.3089 13.0561 31.5925 14.758 33.2762C16.4599 34.9599 18.7682 35.9058 21.175 35.9058C23.5818 35.9058 25.8901 34.9599 27.592 33.2762C29.2939 31.5925 30.25 29.3089 30.25 26.9278V17.9499C30.25 17.1562 29.9313 16.395 29.364 15.8338C28.7967 15.2725 28.0273 14.9572 27.225 14.9572L15.125 14.9543ZM15.125 17.9469H27.225V26.9278C27.225 28.5152 26.5876 30.0376 25.453 31.1601C24.3184 32.2825 22.7796 32.9131 21.175 32.9131C19.5704 32.9131 18.0316 32.2825 16.897 31.1601C15.7624 30.0376 15.125 28.5152 15.125 26.9278V17.9469Z" fill="#D7D7D7"/>
</svg>
