<svg width="25" height="25" viewBox="0 0 25 25" fill="none" xmlns="http://www.w3.org/2000/svg">
<mask id="mask0_250_88" style="mask-type:luminance" maskUnits="userSpaceOnUse" x="0" y="0" width="25" height="25">
<path d="M0 0H25V25H0V0Z" fill="white"/>
</mask>
<g mask="url(#mask0_250_88)">
<path d="M24.4052 3.6553e-06H0.593751C0.515691 3.53518e-06 0.438397 0.0153958 0.366292 0.0452996C0.294187 0.0752035 0.228686 0.119032 0.173538 0.174277C0.118389 0.229522 0.0746755 0.2951 0.0448981 0.367257C0.0151207 0.439414 -0.000136032 0.516735 9.15433e-07 0.594795V24.4063C-0.000136306 24.4844 0.0151548 24.5618 0.0449972 24.634C0.0748397 24.7063 0.118646 24.7719 0.173905 24.8271C0.229164 24.8824 0.294788 24.9262 0.367013 24.956C0.439239 24.9859 0.516645 25.0012 0.594793 25.001H24.4062C24.4844 25.0012 24.5618 24.9859 24.634 24.956C24.7063 24.9262 24.7719 24.8824 24.8271 24.8271C24.8824 24.7719 24.9262 24.7063 24.956 24.634C24.9859 24.5618 25.0012 24.4844 25.001 24.4063V0.593754C25.001 0.515606 24.9856 0.438226 24.9556 0.366053C24.9257 0.29388 24.8818 0.228333 24.8264 0.173171C24.771 0.118009 24.7053 0.0743168 24.6331 0.0446008C24.5608 0.0148849 24.4834 -0.000270548 24.4052 3.6553e-06ZM14.8813 13.3604H11.9052V22.6188H9.52396V13.3604H6.54792V11.3094H14.8813V13.3604ZM15.5479 22.0896V19.6156C15.5479 19.6156 16.9 20.6344 18.5219 20.6344C20.1437 20.6344 20.0812 19.574 20.0812 19.4281C20.0812 17.8896 15.4854 17.8896 15.4854 14.4792C15.4854 9.84167 22.1823 11.6719 22.1823 11.6719L22.099 13.876C22.099 13.876 20.976 13.1271 19.7073 13.1271C18.4385 13.1271 17.9812 13.7313 17.9812 14.375C17.9812 16.0385 22.6187 15.8729 22.6187 19.2208C22.6187 24.3771 15.5479 22.0906 15.5479 22.0906" fill="#D7D7D7"/>
</g>
</svg>
