<svg xmlns="http://www.w3.org/2000/svg" xml:space="preserve" id="svg1" width="30.845" height="32" viewBox="0 0 8.161 8.467"><g id="layer1" transform="translate(-105.076 -118.433)"><path id="path3" d="M106.41 126.847c-.947-.31-1.334-.893-1.334-2.01v-.67h.526l.049.627c.079 1.023.426 1.443 1.2 1.45 1.068.01 1.165-.273 1.194-3.472l.024-2.611h.542v1.571h.392v-3.3l1.159.001c2.2.002 2.99.49 3.07 1.892.078 1.372-.772 2.035-2.608 2.035h-.992v2.828h-.629v-2.839l-.176.025-.177.025-.04 1.65c-.042 1.788-.069 1.906-.523 2.328-.45.418-1.195.627-1.676.47m5.584-5.294c1.415-.954.632-2.43-1.316-2.48l-1.046-.028v2.687h1.048c.961 0 1.071-.015 1.314-.179" style="fill:#000;stroke-width:.29688"/></g></svg>
